# xmcd
#
# Track frame offsets: 
#        150
#        14410
#        26627
#        41517
#        51070
#        66090
#        79295
#        90187
#        104385
#        116150
#        130470
#        140992
#
# Disc length: 2085 seconds
#
# Revision: 2
# Processed by: cddbd v1.5.2PL0 Copyright (c) Steve Scherf et al.
# Submitted via: ExactAudioCopy v0.99pb5
#
DISCID=a608230c
DTITLE=Merle Haggard - Pickin' On
DYEAR=2002
DGENRE=Country
TTITLE0=I'm A Lonesome Fugitive
TTITLE1=If We Make It Through December
TTITLE2=Mama Tried
TTITLE3=I Take A Lot Of Pride In What I Am
TTITLE4=Hungry Eyes
TTITLE5=The Fightin' Side Of Me
TTITLE6=Okie From Muskogee
TTITLE7=Daddy Frank
TTITLE8=Everybody's Had The Blues
TTITLE9=Big City
TTITLE10=Cherokee Maiden
TTITLE11=Always Wanting You
EXTD=
EXTT0=
EXTT1=
EXTT2=
EXTT3=
EXTT4=
EXTT5=
EXTT6=
EXTT7=
EXTT8=
EXTT9=
EXTT10=
EXTT11=
PLAYORDER=
